<svg width="50" height="50" viewBox="0 0 50 50" fill="none" xmlns="http://www.w3.org/2000/svg">
<circle cx="25" cy="25" r="25" fill="#64ABFF" fill-opacity="0.5"/>
<g clip-path="url(#clip0_960_480)">
<path d="M24.5 24C28.1297 24 31.0714 21.0902 31.0714 17.5C31.0714 13.9098 28.1297 11 24.5 11C20.8703 11 17.9286 13.9098 17.9286 17.5C17.9286 21.0902 20.8703 24 24.5 24ZM29.1 25.625H28.2426C27.1029 26.143 25.8348 26.4375 24.5 26.4375C23.1652 26.4375 21.9022 26.143 20.7574 25.625H19.9C16.0906 25.625 13 28.682 13 32.45V34.5625C13 35.9082 14.1038 37 15.4643 37H33.5357C34.8962 37 36 35.9082 36 34.5625V32.45C36 28.682 32.9094 25.625 29.1 25.625Z" fill="#64ABFF"/>
</g>
<defs>
<clipPath id="clip0_960_480">
<rect width="23" height="26" fill="white" transform="translate(13 11)"/>
</clipPath>
</defs>
</svg>
