<svg width="84" height="83" viewBox="0 0 84 83" fill="none" xmlns="http://www.w3.org/2000/svg">
<rect x="3.40552" y="2.67896" width="76.7196" height="76.7196" stroke="url(#paint0_linear)"/>
<circle cx="3.26858" cy="79.5354" r="3.26858" fill="#01A6ED"/>
<rect x="7.98999" y="6.53711" width="68.277" height="68.277" rx="15" fill="url(#paint1_linear)"/>
<circle cx="80.2617" cy="79.5354" r="3.26858" fill="#01A6ED"/>
<circle cx="4.72122" cy="3.26858" r="3.26858" fill="#0192D0"/>
<circle cx="80.2617" cy="3.26858" r="3.26858" fill="#0192D0"/>
<path d="M59 40.5C59 50.165 51.165 58 41.5 58C31.835 58 24 50.165 24 40.5C24 30.835 31.835 23 41.5 23C51.165 23 59 30.835 59 40.5ZM55.6129 40.5L55.6127 40.4801L53.7735 42.0848L49.3506 37.9568L50.5117 32.0043L52.9322 32.2211C51.1759 29.8067 48.6981 27.9809 45.8257 27.0599L46.789 29.3137L41.5 32.244L36.211 29.3138L37.1743 27.06C34.3071 27.9793 31.8269 29.8028 30.0678 32.2212L32.5068 32.0043L33.6494 37.9568L29.2266 42.0848L27.3874 40.4801L27.3872 40.5C27.3872 43.5353 28.3396 46.424 30.1019 48.826L30.6456 46.4341L36.6533 47.1712L39.2148 52.663L37.1048 53.9181C39.9417 54.844 43.0527 54.8458 45.8952 53.9181L43.7852 52.663L46.3467 47.1712L52.3544 46.4341L52.8981 48.826C54.6605 46.424 55.6129 43.5353 55.6129 40.5ZM38.1057 45.4092L35.9963 38.9659L41.5 34.9771L47.0037 38.9659L44.9135 45.4092H38.1057Z" fill="white" fill-opacity="0.8"/>
<defs>
<linearGradient id="paint0_linear" x1="41.7653" y1="2.17896" x2="41.7653" y2="79.8986" gradientUnits="userSpaceOnUse">
<stop stop-color="#0192D0"/>
<stop offset="1" stop-color="#01A7EF"/>
</linearGradient>
<linearGradient id="paint1_linear" x1="42.1285" y1="6.53711" x2="42.1285" y2="74.8141" gradientUnits="userSpaceOnUse">
<stop stop-color="#0191CF"/>
<stop offset="1" stop-color="#01A8F0"/>
</linearGradient>
</defs>
</svg>
