<svg width="92" height="92" viewBox="0 0 92 92" fill="none" xmlns="http://www.w3.org/2000/svg">
<path d="M81.5326 46.389C81.5326 66.1921 65.479 82.2457 45.676 82.2457C25.8729 82.2457 9.81934 66.1921 9.81934 46.389C9.81934 26.586 25.8729 10.5324 45.676 10.5324C65.479 10.5324 81.5326 26.586 81.5326 46.389Z" fill="url(#paint0_linear_57_4978)"/>
<path fill-rule="evenodd" clip-rule="evenodd" d="M45.3957 88.4085C68.7572 88.4085 87.6954 69.4704 87.6954 46.1089C87.6954 22.7475 68.7572 3.8093 45.3957 3.8093C22.0343 3.8093 3.09611 22.7475 3.09611 46.1089C3.09611 69.4704 22.0343 88.4085 45.3957 88.4085ZM45.3957 89.5291C69.376 89.5291 88.8159 70.0892 88.8159 46.1089C88.8159 22.1286 69.376 2.68878 45.3957 2.68878C21.4154 2.68878 1.97559 22.1286 1.97559 46.1089C1.97559 70.0892 21.4154 89.5291 45.3957 89.5291Z" fill="url(#paint1_linear_57_4978)"/>
<path d="M50.1583 3.24905C50.1583 4.79617 48.9041 6.05035 47.357 6.05035C45.8098 6.05035 44.5557 4.79617 44.5557 3.24905C44.5557 1.70194 45.8098 0.447754 47.357 0.447754C48.9041 0.447754 50.1583 1.70194 50.1583 3.24905Z" fill="#63C64A"/>
<path d="M91.0577 45.8288C91.0577 47.3759 89.8035 48.6301 88.2564 48.6301C86.7093 48.6301 85.4551 47.3759 85.4551 45.8288C85.4551 44.2817 86.7093 43.0275 88.2564 43.0275C89.8035 43.0275 91.0577 44.2817 91.0577 45.8288Z" fill="#6BDA4F"/>
<path d="M48.4776 88.9688C48.4776 90.516 47.2234 91.7701 45.6763 91.7701C44.1292 91.7701 42.875 90.516 42.875 88.9688C42.875 87.4217 44.1292 86.1675 45.6763 86.1675C47.2234 86.1675 48.4776 87.4217 48.4776 88.9688Z" fill="#73ED53"/>
<path d="M5.6026 45.8288C5.6026 47.3759 4.34841 48.6301 2.8013 48.6301C1.25418 48.6301 0 47.3759 0 45.8288C0 44.2817 1.25418 43.0275 2.8013 43.0275C4.34841 43.0275 5.6026 44.2817 5.6026 45.8288Z" fill="#6BDA4F"/>
<g opacity="0.8">
<path d="M57.2222 33.8152H34.5151C33.7624 33.8152 33.0404 34.1215 32.5081 34.6668C31.9758 35.2121 31.6768 35.9516 31.6768 36.7228V54.1684C31.6768 54.9396 31.9758 55.6791 32.5081 56.2244C33.0404 56.7697 33.7624 57.076 34.5151 57.076H43.0303V59.9836H38.7727V62.8913H52.9646V59.9836H48.707V57.076H57.2222C57.9749 57.076 58.6969 56.7697 59.2292 56.2244C59.7615 55.6791 60.0605 54.9396 60.0605 54.1684V36.7228C60.0605 35.9516 59.7615 35.2121 59.2292 34.6668C58.6969 34.1215 57.9749 33.8152 57.2222 33.8152ZM57.2222 54.1684H34.5151V36.7228H57.2222V54.1684Z" fill="white"/>
</g>
<defs>
<linearGradient id="paint0_linear_57_4978" x1="45.676" y1="10.5324" x2="45.676" y2="82.2457" gradientUnits="userSpaceOnUse">
<stop stop-color="#62C449"/>
<stop offset="1" stop-color="#74F054"/>
</linearGradient>
<linearGradient id="paint1_linear_57_4978" x1="45.3957" y1="2.68878" x2="45.3957" y2="89.5291" gradientUnits="userSpaceOnUse">
<stop stop-color="#64C84A"/>
<stop offset="1" stop-color="#72EB53"/>
</linearGradient>
</defs>
</svg>
