<svg width="113" height="113" viewBox="0 0 113 113" fill="none" xmlns="http://www.w3.org/2000/svg">
<rect x="2.75108" y="56.2332" width="76.2308" height="76.2308" transform="rotate(-44.5536 2.75108 56.2332)" stroke="url(#paint0_linear_57_4888)" stroke-width="2"/>
<rect x="10.0293" y="56.6597" width="66.4648" height="66.4648" rx="15" transform="rotate(-44.5536 10.0293 56.6597)" fill="url(#paint1_linear_57_4888)"/>
<circle cx="109.991" cy="57.1687" r="3.00888" fill="#01A9F2"/>
<circle cx="56.5001" cy="109.991" r="3.00888" fill="#01A9F2"/>
<circle cx="57.169" cy="3.00888" r="3.00888" fill="#0191CF"/>
<g opacity="0.8" clip-path="url(#clip0_57_4888)">
<path d="M47.4375 51.1562C47.4375 50.7336 47.6054 50.3282 47.9043 50.0293C48.2032 49.7304 48.6086 49.5625 49.0312 49.5625H64.9688C65.3914 49.5625 65.7968 49.7304 66.0957 50.0293C66.3946 50.3282 66.5625 50.7336 66.5625 51.1562V62.8438C66.5625 63.2664 66.3946 63.6718 66.0957 63.9707C65.7968 64.2696 65.3914 64.4375 64.9688 64.4375C64.5461 64.4375 64.1407 64.2696 63.8418 63.9707C63.5429 63.6718 63.375 63.2664 63.375 62.8438V52.75H49.0312C48.6086 52.75 48.2032 52.5821 47.9043 52.2832C47.6054 51.9843 47.4375 51.5789 47.4375 51.1562ZM71.3438 47.4375V66.5625C71.3438 67.267 71.0639 67.9426 70.5658 68.4408C70.0676 68.9389 69.392 69.2188 68.6875 69.2188H59.8236C59.4878 69.2187 59.1607 69.1126 58.8888 68.9156C58.6169 68.7186 58.4142 68.4408 58.3095 68.1217C57.9761 67.196 57.3652 66.3957 56.5601 65.83C55.7551 65.2643 54.7951 64.9607 53.8112 64.9607C52.8272 64.9607 51.8673 65.2643 51.0622 65.83C50.2572 66.3957 49.6462 67.196 49.3128 68.1217C49.2083 68.4403 49.006 68.7178 48.7346 68.9148C48.4633 69.1118 48.1367 69.2181 47.8014 69.2188H45.3125C44.608 69.2188 43.9324 68.9389 43.4342 68.4408C42.9361 67.9426 42.6562 67.267 42.6562 66.5625V47.4375C42.6562 46.733 42.9361 46.0574 43.4342 45.5592C43.9324 45.0611 44.608 44.7812 45.3125 44.7812H68.6875C69.392 44.7812 70.0676 45.0611 70.5658 45.5592C71.0639 46.0574 71.3438 46.733 71.3438 47.4375ZM53.8125 61.7812C54.2328 61.7812 54.6436 61.6566 54.9931 61.4231C55.3425 61.1896 55.6149 60.8577 55.7757 60.4695C55.9366 60.0812 55.9787 59.6539 55.8967 59.2417C55.8147 58.8295 55.6123 58.4508 55.3151 58.1536C55.0179 57.8565 54.6393 57.6541 54.2271 57.5721C53.8149 57.4901 53.3876 57.5322 52.9993 57.693C52.611 57.8538 52.2791 58.1262 52.0456 58.4757C51.8121 58.8251 51.6875 59.236 51.6875 59.6562C51.6875 60.2198 51.9114 60.7603 52.3099 61.1589C52.7084 61.5574 53.2489 61.7812 53.8125 61.7812ZM68.1562 47.9688H45.8438V66.0312H46.7628C47.4331 64.7655 48.4313 63.7032 49.6528 62.9553C49.0313 62.173 48.643 61.2312 48.5326 60.2382C48.4221 59.2452 48.5939 58.2411 49.0283 57.3413C49.4626 56.4415 50.1419 55.6825 50.9882 55.1513C51.8344 54.6201 52.8133 54.3383 53.8125 54.3383C54.8117 54.3383 55.7906 54.6201 56.6368 55.1513C57.4831 55.6825 58.1624 56.4415 58.5967 57.3413C59.0311 58.2411 59.2029 59.2452 59.0924 60.2382C58.982 61.2312 58.5937 62.173 57.9722 62.9553C59.1937 63.7032 60.1919 64.7655 60.8622 66.0312H68.1562V47.9688Z" fill="white"/>
</g>
<circle cx="3.00888" cy="56.5" r="3.00888" fill="#0191D0"/>
<defs>
<linearGradient id="paint0_linear_57_4888" x1="40.4523" y1="56.2222" x2="40.4523" y2="134.453" gradientUnits="userSpaceOnUse">
<stop stop-color="#0192D1"/>
<stop offset="1" stop-color="#01A9F2"/>
</linearGradient>
<linearGradient id="paint1_linear_57_4888" x1="43.2617" y1="56.6597" x2="43.2617" y2="123.124" gradientUnits="userSpaceOnUse">
<stop stop-color="#018FCD"/>
<stop offset="1" stop-color="#01A9F2"/>
</linearGradient>
<clipPath id="clip0_57_4888">
<rect width="30.625" height="35" fill="white" transform="translate(41.6172 38.6982)"/>
</clipPath>
</defs>
</svg>
