<svg width="113" height="113" viewBox="0 0 113 113" fill="none" xmlns="http://www.w3.org/2000/svg">
<rect x="2.75108" y="56.2332" width="76.2308" height="76.2308" transform="rotate(-44.5536 2.75108 56.2332)" stroke="url(#paint0_linear_57_4876)" stroke-width="2"/>
<rect x="10.0293" y="56.6597" width="66.4648" height="66.4648" rx="15" transform="rotate(-44.5536 10.0293 56.6597)" fill="url(#paint1_linear_57_4876)"/>
<circle cx="109.991" cy="57.1687" r="3.00888" fill="#EF938B"/>
<circle cx="56.5001" cy="109.991" r="3.00888" fill="#EF938B"/>
<circle cx="57.169" cy="3.00888" r="3.00888" fill="#A25049"/>
<circle cx="3.00888" cy="56.5" r="3.00888" fill="#A25049"/>
<g opacity="0.8" clip-path="url(#clip0_57_4876)">
<path fill-rule="evenodd" clip-rule="evenodd" d="M60.7097 38.4615C60.7097 38.3391 60.6604 38.2217 60.5727 38.1352C60.485 38.0486 60.366 38 60.2419 38H47.1452C45.7806 38 44.4719 38.5349 43.507 39.487C42.5421 40.4391 42 41.7304 42 43.0769V68.9231C42 70.2696 42.5421 71.5609 43.507 72.513C44.4719 73.4651 45.7806 74 47.1452 74H65.8548C67.2194 74 68.5281 73.4651 69.493 72.513C70.4579 71.5609 71 70.2696 71 68.9231V50.7329C71 50.6105 70.9507 50.4931 70.863 50.4066C70.7753 50.32 70.6563 50.2714 70.5323 50.2714H62.1129C61.7407 50.2714 61.3838 50.1255 61.1207 49.8658C60.8575 49.6062 60.7097 49.254 60.7097 48.8868V38.4615ZM62.1129 56.4615C62.4851 56.4615 62.842 56.6074 63.1051 56.8671C63.3683 57.1267 63.5161 57.4789 63.5161 57.8462C63.5161 58.2134 63.3683 58.5656 63.1051 58.8252C62.842 59.0849 62.4851 59.2308 62.1129 59.2308H50.8871C50.5149 59.2308 50.158 59.0849 49.8949 58.8252C49.6317 58.5656 49.4839 58.2134 49.4839 57.8462C49.4839 57.4789 49.6317 57.1267 49.8949 56.8671C50.158 56.6074 50.5149 56.4615 50.8871 56.4615H62.1129ZM62.1129 63.8462C62.4851 63.8462 62.842 63.992 63.1051 64.2517C63.3683 64.5114 63.5161 64.8635 63.5161 65.2308C63.5161 65.598 63.3683 65.9502 63.1051 66.2098C62.842 66.4695 62.4851 66.6154 62.1129 66.6154H50.8871C50.5149 66.6154 50.158 66.4695 49.8949 66.2098C49.6317 65.9502 49.4839 65.598 49.4839 65.2308C49.4839 64.8635 49.6317 64.5114 49.8949 64.2517C50.158 63.992 50.5149 63.8462 50.8871 63.8462H62.1129Z" fill="white"/>
</g>
<defs>
<linearGradient id="paint0_linear_57_4876" x1="40.4523" y1="56.2222" x2="40.4523" y2="134.453" gradientUnits="userSpaceOnUse">
<stop stop-color="#A25049"/>
<stop offset="1" stop-color="#EF938B"/>
</linearGradient>
<linearGradient id="paint1_linear_57_4876" x1="43.2617" y1="56.6597" x2="43.2617" y2="123.124" gradientUnits="userSpaceOnUse">
<stop stop-color="#A25049"/>
<stop offset="1" stop-color="#EF938B"/>
</linearGradient>
<clipPath id="clip0_57_4876">
<rect width="44.1304" height="35" fill="white" transform="translate(34.6172 38.6982)"/>
</clipPath>
</defs>
</svg>
