<svg width="84" height="83" viewBox="0 0 84 83" fill="none" xmlns="http://www.w3.org/2000/svg">
<rect x="3.40552" y="2.67896" width="76.7196" height="76.7196" stroke="url(#paint0_linear)"/>
<rect x="7.98999" y="6.53711" width="68.277" height="68.277" rx="15" fill="url(#paint1_linear)"/>
<circle cx="80.2617" cy="79.5354" r="3.26858" fill="#E3D501"/>
<circle cx="3.26858" cy="79.5354" r="3.26858" fill="#E3D501"/>
<circle cx="4.72122" cy="3.26858" r="3.26858" fill="#D1C401"/>
<circle cx="80.2617" cy="3.26858" r="3.26858" fill="#D1C401"/>
<path d="M51.9688 26.375H46.5C46.5 23.9619 44.5381 22 42.125 22C39.7119 22 37.75 23.9619 37.75 26.375H32.2812C30.4697 26.375 29 27.8447 29 29.6562V53.7188C29 55.5303 30.4697 57 32.2812 57H51.9688C53.7803 57 55.25 55.5303 55.25 53.7188V29.6562C55.25 27.8447 53.7803 26.375 51.9688 26.375ZM35.5625 50.9844C34.6533 50.9844 33.9219 50.2529 33.9219 49.3438C33.9219 48.4346 34.6533 47.7031 35.5625 47.7031C36.4717 47.7031 37.2031 48.4346 37.2031 49.3438C37.2031 50.2529 36.4717 50.9844 35.5625 50.9844ZM35.5625 44.4219C34.6533 44.4219 33.9219 43.6904 33.9219 42.7812C33.9219 41.8721 34.6533 41.1406 35.5625 41.1406C36.4717 41.1406 37.2031 41.8721 37.2031 42.7812C37.2031 43.6904 36.4717 44.4219 35.5625 44.4219ZM35.5625 37.8594C34.6533 37.8594 33.9219 37.1279 33.9219 36.2188C33.9219 35.3096 34.6533 34.5781 35.5625 34.5781C36.4717 34.5781 37.2031 35.3096 37.2031 36.2188C37.2031 37.1279 36.4717 37.8594 35.5625 37.8594ZM42.125 24.7344C43.0342 24.7344 43.7656 25.4658 43.7656 26.375C43.7656 27.2842 43.0342 28.0156 42.125 28.0156C41.2158 28.0156 40.4844 27.2842 40.4844 26.375C40.4844 25.4658 41.2158 24.7344 42.125 24.7344ZM50.875 49.8906C50.875 50.1914 50.6289 50.4375 50.3281 50.4375H40.4844C40.1836 50.4375 39.9375 50.1914 39.9375 49.8906V48.7969C39.9375 48.4961 40.1836 48.25 40.4844 48.25H50.3281C50.6289 48.25 50.875 48.4961 50.875 48.7969V49.8906ZM50.875 43.3281C50.875 43.6289 50.6289 43.875 50.3281 43.875H40.4844C40.1836 43.875 39.9375 43.6289 39.9375 43.3281V42.2344C39.9375 41.9336 40.1836 41.6875 40.4844 41.6875H50.3281C50.6289 41.6875 50.875 41.9336 50.875 42.2344V43.3281ZM50.875 36.7656C50.875 37.0664 50.6289 37.3125 50.3281 37.3125H40.4844C40.1836 37.3125 39.9375 37.0664 39.9375 36.7656V35.6719C39.9375 35.3711 40.1836 35.125 40.4844 35.125H50.3281C50.6289 35.125 50.875 35.3711 50.875 35.6719V36.7656Z" fill="white" fill-opacity="0.8"/>
<defs>
<linearGradient id="paint0_linear" x1="41.7653" y1="2.17896" x2="41.7653" y2="79.8986" gradientUnits="userSpaceOnUse">
<stop stop-color="#D1C401"/>
<stop offset="1" stop-color="#E3D501"/>
</linearGradient>
<linearGradient id="paint1_linear" x1="42.1285" y1="6.53711" x2="42.1285" y2="74.8141" gradientUnits="userSpaceOnUse">
<stop stop-color="#CFC201"/>
<stop offset="1" stop-color="#E5D701"/>
</linearGradient>
</defs>
</svg>
