<svg width="84" height="83" viewBox="0 0 84 83" fill="none" xmlns="http://www.w3.org/2000/svg">
<rect x="3.40552" y="2.67896" width="76.7196" height="76.7196" stroke="url(#paint0_linear)"/>
<rect x="7.98975" y="6.53735" width="68.277" height="68.277" rx="15" fill="url(#paint1_linear)"/>
<circle cx="80.2617" cy="79.5354" r="3.26858" fill="#74F154"/>
<circle cx="3.26858" cy="79.5354" r="3.26858" fill="#74F154"/>
<circle cx="4.72122" cy="3.26858" r="3.26858" fill="#62C54A"/>
<circle cx="80.2617" cy="3.26858" r="3.26858" fill="#62C54A"/>
<path d="M56.8047 33.9375C57.2559 33.9375 57.625 33.5684 57.625 33.1172V30.3828C57.625 29.9316 57.2559 29.5625 56.8047 29.5625H55.4375V26.2812C55.4375 24.4697 53.9678 23 52.1562 23H30.2812C28.4697 23 27 24.4697 27 26.2812V54.7188C27 56.5303 28.4697 58 30.2812 58H52.1562C53.9678 58 55.4375 56.5303 55.4375 54.7188V51.4375H56.8047C57.2559 51.4375 57.625 51.0684 57.625 50.6172V47.8828C57.625 47.4316 57.2559 47.0625 56.8047 47.0625H55.4375V42.6875H56.8047C57.2559 42.6875 57.625 42.3184 57.625 41.8672V39.1328C57.625 38.6816 57.2559 38.3125 56.8047 38.3125H55.4375V33.9375H56.8047ZM41.2188 31.75C43.6318 31.75 45.5938 33.7119 45.5938 36.125C45.5938 38.5381 43.6318 40.5 41.2188 40.5C38.8057 40.5 36.8438 38.5381 36.8438 36.125C36.8438 33.7119 38.8057 31.75 41.2188 31.75ZM48.875 47.9375C48.875 48.6621 48.1914 49.25 47.3438 49.25H35.0938C34.2461 49.25 33.5625 48.6621 33.5625 47.9375V46.625C33.5625 44.4512 35.6201 42.6875 38.1562 42.6875H38.498C39.3389 43.0361 40.2549 43.2344 41.2188 43.2344C42.1826 43.2344 43.1055 43.0361 43.9395 42.6875H44.2812C46.8174 42.6875 48.875 44.4512 48.875 46.625V47.9375Z" fill="white" fill-opacity="0.8"/>
<defs>
<linearGradient id="paint0_linear" x1="41.7653" y1="2.17896" x2="41.7653" y2="79.8986" gradientUnits="userSpaceOnUse">
<stop stop-color="#62C449"/>
<stop offset="1" stop-color="#74F154"/>
</linearGradient>
<linearGradient id="paint1_linear" x1="42.1283" y1="6.53735" x2="42.1283" y2="74.8144" gradientUnits="userSpaceOnUse">
<stop stop-color="#61C149"/>
<stop offset="1" stop-color="#76F755"/>
</linearGradient>
</defs>
</svg>
