<svg width="32" height="48" viewBox="0 0 32 48" fill="none" xmlns="http://www.w3.org/2000/svg">
<path d="M7.59974 15.7317L3.6021 3.83189C3.43552 3.33604 3.73159 2.8043 4.24038 2.68552L11.4706 0.997487C11.9498 0.885617 12.4282 1.18631 12.5359 1.66706L14.1201 8.74103C14.3244 9.65309 15.133 10.3013 16.0665 10.3013C16.9999 10.3013 17.8085 9.65309 18.0128 8.74103L19.5944 1.67916C19.7031 1.19375 20.1892 0.892829 20.6715 1.01245L27.3764 2.67567C27.8788 2.80029 28.1679 3.32795 28.0028 3.81918L24.0009 15.7317C23.3947 17.5363 21.7055 18.7519 19.8041 18.7519H11.7966C9.89514 18.7519 8.20599 17.5363 7.59974 15.7317Z" fill="url(#paint0_linear)"/>
<path d="M31 31.5913C31 39.8756 24.2843 46.5913 16 46.5913C7.71573 46.5913 1 39.8756 1 31.5913C1 23.307 7.71573 16.5913 16 16.5913C24.2843 16.5913 31 23.307 31 31.5913Z" fill="#C07A68" stroke="white" stroke-width="2"/>
<path d="M15.3498 23.7097C15.6157 22.8936 16.7794 22.8936 17.0453 23.7097L18.3905 27.839C18.5093 28.2039 18.8517 28.4511 19.2382 28.4511H23.6012C24.4631 28.4511 24.8227 29.5445 24.1267 30.0488L20.5889 32.6124C20.2783 32.8375 20.1483 33.235 20.2666 33.5981L21.616 37.7403C21.8816 38.5555 20.9402 39.2313 20.2429 38.726L16.723 36.1754C16.41 35.9485 15.9851 35.9485 15.6721 36.1754L12.1522 38.726C11.4549 39.2313 10.5135 38.5555 10.779 37.7403L12.1284 33.5981C12.2467 33.235 12.1168 32.8375 11.8062 32.6124L8.26841 30.0488C7.57237 29.5445 7.93195 28.4511 8.79386 28.4511H13.1569C13.5434 28.4511 13.8858 28.2039 14.0046 27.839L15.3498 23.7097Z" fill="#FFF7F7"/>
<defs>
<linearGradient id="paint0_linear" x1="15.8003" y1="0.794425" x2="15.8003" y2="18.7519" gradientUnits="userSpaceOnUse">
<stop stop-color="#3F72F9"/>
<stop offset="1" stop-color="#6389EF"/>
</linearGradient>
</defs>
</svg>
