<svg width="32" height="48" viewBox="0 0 32 48" fill="none" xmlns="http://www.w3.org/2000/svg">
<path d="M7.59974 15.7234L3.6021 3.82359C3.43552 3.32774 3.73159 2.796 4.24038 2.67721L11.4706 0.989187C11.9498 0.877317 12.4282 1.17801 12.5359 1.65876L14.1201 8.73273C14.3244 9.64479 15.133 10.293 16.0665 10.293C16.9999 10.293 17.8085 9.64479 18.0128 8.73273L19.5944 1.67086C19.7031 1.18545 20.1892 0.884528 20.6715 1.00415L27.3764 2.66737C27.8788 2.79199 28.1679 3.31964 28.0028 3.81088L24.0009 15.7234C23.3947 17.528 21.7055 18.7436 19.8041 18.7436H11.7966C9.89514 18.7436 8.20599 17.528 7.59974 15.7234Z" fill="url(#paint0_linear)"/>
<path d="M31 31.583C31 39.8673 24.2843 46.583 16 46.583C7.71573 46.583 1 39.8673 1 31.583C1 23.2987 7.71573 16.583 16 16.583C24.2843 16.583 31 23.2987 31 31.583Z" fill="#FFD649" stroke="white" stroke-width="2"/>
<path d="M15.3498 23.7014C15.6157 22.8853 16.7794 22.8853 17.0453 23.7014L18.3905 27.8307C18.5093 28.1956 18.8517 28.4428 19.2382 28.4428H23.6012C24.4631 28.4428 24.8227 29.5362 24.1267 30.0405L20.5889 32.6041C20.2783 32.8292 20.1483 33.2267 20.2666 33.5898L21.616 37.732C21.8816 38.5472 20.9402 39.223 20.2429 38.7177L16.723 36.1671C16.41 35.9402 15.9851 35.9402 15.6721 36.1671L12.1522 38.7177C11.4549 39.223 10.5135 38.5472 10.779 37.732L12.1284 33.5898C12.2467 33.2267 12.1168 32.8292 11.8062 32.6041L8.26841 30.0405C7.57237 29.5362 7.93195 28.4428 8.79386 28.4428H13.1569C13.5434 28.4428 13.8858 28.1956 14.0046 27.8307L15.3498 23.7014Z" fill="#FFF7F7"/>
<defs>
<linearGradient id="paint0_linear" x1="15.8003" y1="0.786124" x2="15.8003" y2="18.7436" gradientUnits="userSpaceOnUse">
<stop stop-color="#3F72F9"/>
<stop offset="1" stop-color="#6389EF"/>
</linearGradient>
</defs>
</svg>
