<svg width="32" height="48" viewBox="0 0 32 48" fill="none" xmlns="http://www.w3.org/2000/svg">
<path d="M7.59974 15.7278L3.6021 3.82798C3.43552 3.33213 3.73159 2.8004 4.24038 2.68161L11.4706 0.993581C11.9498 0.881711 12.4282 1.18241 12.5359 1.66315L14.1201 8.73712C14.3244 9.64918 15.133 10.2974 16.0665 10.2974C16.9999 10.2974 17.8085 9.64918 18.0128 8.73712L19.5944 1.67526C19.7031 1.18984 20.1892 0.888923 20.6715 1.00854L27.3764 2.67176C27.8788 2.79639 28.1679 3.32404 28.0028 3.81528L24.0009 15.7278C23.3947 17.5324 21.7055 18.748 19.8041 18.748H11.7966C9.89514 18.748 8.20599 17.5324 7.59974 15.7278Z" fill="url(#paint0_linear)"/>
<path d="M31 31.5874C31 39.8717 24.2843 46.5874 16 46.5874C7.71573 46.5874 1 39.8717 1 31.5874C1 23.3031 7.71573 16.5874 16 16.5874C24.2843 16.5874 31 23.3031 31 31.5874Z" fill="#CBCCCC" stroke="white" stroke-width="2"/>
<path d="M15.3498 23.7058C15.6157 22.8897 16.7794 22.8897 17.0453 23.7058L18.3905 27.8351C18.5093 28.1999 18.8517 28.4472 19.2382 28.4472H23.6012C24.4631 28.4472 24.8227 29.5405 24.1267 30.0449L20.5889 32.6085C20.2783 32.8336 20.1483 33.2311 20.2666 33.5942L21.616 37.7364C21.8816 38.5516 20.9402 39.2274 20.2429 38.7221L16.723 36.1715C16.41 35.9446 15.9851 35.9446 15.6721 36.1715L12.1522 38.7221C11.4549 39.2274 10.5135 38.5516 10.779 37.7364L12.1284 33.5942C12.2467 33.2311 12.1168 32.8336 11.8062 32.6085L8.26841 30.0449C7.57237 29.5405 7.93195 28.4472 8.79386 28.4472H13.1569C13.5434 28.4472 13.8858 28.1999 14.0046 27.8351L15.3498 23.7058Z" fill="#FFF7F7"/>
<defs>
<linearGradient id="paint0_linear" x1="15.8003" y1="0.790519" x2="15.8003" y2="18.748" gradientUnits="userSpaceOnUse">
<stop stop-color="#3F72F9"/>
<stop offset="1" stop-color="#6389EF"/>
</linearGradient>
</defs>
</svg>
