<svg width="92" height="92" viewBox="0 0 92 92" fill="none" xmlns="http://www.w3.org/2000/svg">
<path d="M82.3588 46.3891C82.3588 66.1922 66.3052 82.2457 46.5021 82.2457C26.6991 82.2457 10.6455 66.1922 10.6455 46.3891C10.6455 26.586 26.6991 10.5324 46.5021 10.5324C66.3052 10.5324 82.3588 26.586 82.3588 46.3891Z" fill="url(#paint0_linear_57_4996)"/>
<path fill-rule="evenodd" clip-rule="evenodd" d="M46.2209 88.4086C69.5824 88.4086 88.5206 69.4704 88.5206 46.1089C88.5206 22.7475 69.5824 3.8093 46.2209 3.8093C22.8595 3.8093 3.9213 22.7475 3.9213 46.1089C3.9213 69.4704 22.8595 88.4086 46.2209 88.4086ZM46.2209 89.5291C70.2012 89.5291 89.6411 70.0892 89.6411 46.1089C89.6411 22.1286 70.2012 2.68878 46.2209 2.68878C22.2406 2.68878 2.80078 22.1286 2.80078 46.1089C2.80078 70.0892 22.2406 89.5291 46.2209 89.5291Z" fill="url(#paint1_linear_57_4996)"/>
<path d="M50.9835 3.24905C50.9835 4.79617 49.7293 6.05035 48.1822 6.05035C46.635 6.05035 45.3809 4.79617 45.3809 3.24905C45.3809 1.70194 46.635 0.447754 48.1822 0.447754C49.7293 0.447754 50.9835 1.70194 50.9835 3.24905Z" fill="#D2C501"/>
<path d="M91.8829 45.8288C91.8829 47.3759 90.6287 48.6301 89.0816 48.6301C87.5345 48.6301 86.2803 47.3759 86.2803 45.8288C86.2803 44.2817 87.5345 43.0275 89.0816 43.0275C90.6287 43.0275 91.8829 44.2817 91.8829 45.8288Z" fill="#D9CC01"/>
<path d="M49.3028 88.9688C49.3028 90.516 48.0486 91.7701 46.5015 91.7701C44.9544 91.7701 43.7002 90.516 43.7002 88.9688C43.7002 87.4217 44.9544 86.1675 46.5015 86.1675C48.0486 86.1675 49.3028 87.4217 49.3028 88.9688Z" fill="#E0D301"/>
<path d="M5.6026 45.8288C5.6026 47.3759 4.34841 48.6301 2.8013 48.6301C1.25418 48.6301 0 47.3759 0 45.8288C0 44.2817 1.25418 43.0275 2.8013 43.0275C4.34841 43.0275 5.6026 44.2817 5.6026 45.8288Z" fill="#D9CC01"/>
<g opacity="0.8" clip-path="url(#clip0_57_4996)">
<path fill-rule="evenodd" clip-rule="evenodd" d="M39.2304 34.1943L50.4837 34.1883V38.8193L39.2304 38.8253C38.7222 38.8259 38.2271 38.6547 37.8176 38.3367L35.9935 36.915C35.9336 36.8683 35.885 36.8073 35.8515 36.7371C35.818 36.6669 35.8005 36.5894 35.8005 36.5108C35.8005 36.4322 35.818 36.3547 35.8515 36.2845C35.885 36.2143 35.9336 36.1534 35.9935 36.1066L37.8195 34.6829C38.2277 34.365 38.7214 34.1931 39.2285 34.1923L39.2304 34.1943ZM55.1164 38.8153L52.8638 38.8173V34.1862H55.124C56.3312 34.2064 57.2547 35.3385 57.2547 36.4988C57.2547 37.661 56.3312 38.7952 55.124 38.8153H55.1164ZM43.8231 43.4604C44.461 43.7299 45.0037 44.0255 45.474 44.319V61.1862C44.7484 60.6104 43.9547 60.1372 43.1129 59.7786C41.7134 59.1874 39.695 58.6988 36.6161 58.6988C36.3636 58.6988 36.1215 58.5929 35.9429 58.4043C35.7644 58.2158 35.6641 57.96 35.6641 57.6934V43.2392C35.6641 42.9725 35.7644 42.7168 35.9429 42.5283C36.1215 42.3397 36.3636 42.2338 36.6161 42.2338C39.8912 42.2338 42.1571 42.7546 43.8231 43.4604ZM50.2133 59.7786C49.1851 60.215 48.4634 60.7157 47.8522 61.1842V44.319C48.3225 44.0255 48.8671 43.7299 49.505 43.4604C51.1711 42.7546 53.437 42.2338 56.712 42.2338C56.9645 42.2338 57.2067 42.3397 57.3852 42.5283C57.5638 42.7168 57.6641 42.9725 57.6641 43.2392V57.6934C57.6641 57.96 57.5638 58.2158 57.3852 58.4043C57.2067 58.5929 56.9645 58.6988 56.712 58.6988C53.6331 58.6988 51.6147 59.1854 50.2133 59.7786Z" fill="white"/>
</g>
<defs>
<linearGradient id="paint0_linear_57_4996" x1="46.5021" y1="10.5324" x2="46.5021" y2="82.2457" gradientUnits="userSpaceOnUse">
<stop stop-color="#D1C401"/>
<stop offset="1" stop-color="#E2D501"/>
</linearGradient>
<linearGradient id="paint1_linear_57_4996" x1="46.2209" y1="2.68878" x2="46.2209" y2="89.5291" gradientUnits="userSpaceOnUse">
<stop stop-color="#D2C501"/>
<stop offset="1" stop-color="#E0D301"/>
</linearGradient>
<clipPath id="clip0_57_4996">
<rect width="28.8897" height="28.8897" fill="white" transform="translate(32 32)"/>
</clipPath>
</defs>
</svg>
