<svg width="100" height="100" viewBox="0 0 100 100" fill="none" xmlns="http://www.w3.org/2000/svg">
<path d="M100 50C100 77.6142 77.6142 100 50 100C22.3858 100 0 77.6142 0 50C0 22.3858 22.3858 0 50 0C77.6142 0 100 22.3858 100 50Z" fill="#EFB18C" fill-opacity="0.2"/>
<mask id="mask0" mask-type="alpha" maskUnits="userSpaceOnUse" x="0" y="0" width="100" height="100">
<circle cx="50" cy="50" r="50" fill="#EFB18C"/>
</mask>
<g mask="url(#mask0)">
<path d="M26.052 101.474H17.6872C17.4045 101.474 17.1336 101.361 16.9337 101.159C16.7338 100.958 16.6214 100.685 16.6211 100.401V82.897C16.6214 82.6124 16.7338 82.3396 16.9337 82.1383C17.1336 81.9371 17.4045 81.8239 17.6872 81.8236H26.052C26.3347 81.8239 26.6057 81.9371 26.8055 82.1383C27.0054 82.3396 27.1178 82.6124 27.1181 82.897V100.401C27.1178 100.685 27.0054 100.958 26.8055 101.159C26.6057 101.361 26.3347 101.474 26.052 101.474Z" fill="#A25049"/>
<path d="M45.8982 101.639H37.5333C37.2072 101.639 36.8945 101.508 36.6639 101.276C36.4333 101.044 36.3036 100.729 36.3032 100.401V66.3839C36.3036 66.0555 36.4333 65.7407 36.6639 65.5086C36.8945 65.2764 37.2072 65.1458 37.5333 65.1454H45.8982C46.2243 65.1458 46.537 65.2764 46.7676 65.5086C46.9982 65.7407 47.1279 66.0555 47.1283 66.3839V100.401C47.1279 100.729 46.9982 101.044 46.7676 101.276C46.537 101.508 46.2243 101.639 45.8982 101.639V101.639ZM37.5333 65.4757C37.2942 65.476 37.0649 65.5717 36.8958 65.742C36.7267 65.9123 36.6315 66.1431 36.6313 66.3839V100.401C36.6315 100.642 36.7267 100.873 36.8958 101.043C37.0649 101.213 37.2942 101.309 37.5333 101.309H45.8982C46.1373 101.309 46.3666 101.213 46.5358 101.043C46.7049 100.873 46.8 100.642 46.8003 100.401V66.3839C46.8 66.1431 46.7049 65.9123 46.5358 65.742C46.3666 65.5717 46.1373 65.476 45.8982 65.4757H37.5333Z" fill="#3F3D56"/>
<path d="M65.7441 101.639H57.3793C57.0532 101.639 56.7405 101.508 56.5099 101.276C56.2793 101.044 56.1495 100.729 56.1492 100.401V44.7517C56.1495 44.4233 56.2793 44.1085 56.5099 43.8763C56.7405 43.6441 57.0532 43.5135 57.3793 43.5132H65.7441C66.0703 43.5135 66.3829 43.6441 66.6136 43.8763C66.8442 44.1085 66.9739 44.4233 66.9742 44.7517V100.401C66.9739 100.729 66.8442 101.044 66.6136 101.276C66.3829 101.508 66.0703 101.639 65.7441 101.639V101.639ZM57.3793 43.8434C57.1401 43.8437 56.9108 43.9395 56.7417 44.1098C56.5726 44.28 56.4775 44.5109 56.4772 44.7517V100.401C56.4775 100.642 56.5726 100.873 56.7417 101.043C56.9108 101.213 57.1401 101.309 57.3793 101.309H65.7441C65.9833 101.309 66.2126 101.213 66.3817 101.043C66.5508 100.873 66.6459 100.642 66.6462 100.401V44.7517C66.6459 44.5109 66.5508 44.28 66.3817 44.1098C66.2126 43.9395 65.9833 43.8437 65.7441 43.8434H57.3793Z" fill="#3F3D56"/>
<path d="M85.7754 101.557H77.4106C77.1279 101.556 76.857 101.443 76.6571 101.242C76.4572 101.041 76.3448 100.768 76.3445 100.483V22.0461C76.3448 21.7616 76.4572 21.4887 76.6571 21.2875C76.857 21.0863 77.1279 20.9731 77.4106 20.9728H85.7754C86.0581 20.9731 86.3291 21.0863 86.5289 21.2875C86.7288 21.4887 86.8412 21.7616 86.8415 22.0461V100.483C86.8412 100.768 86.7288 101.041 86.5289 101.242C86.3291 101.443 86.0581 101.556 85.7754 101.557Z" fill="#A25049"/>
<path d="M33.7514 53.1117C33.7817 52.8709 33.7592 52.6263 33.6855 52.3952C33.6118 52.164 33.4887 51.952 33.3248 51.7739C33.1609 51.5959 32.9602 51.4562 32.7369 51.3647C32.5135 51.2732 32.273 51.2321 32.0322 51.2443L29.1165 45.8595L28.4604 48.1714L30.458 53.1064C30.5052 53.5124 30.6987 53.8868 31.0017 54.1587C31.3048 54.4306 31.6964 54.5812 32.1023 54.5818C32.5083 54.5825 32.9004 54.4332 33.2043 54.1622C33.5082 53.8913 33.7029 53.5175 33.7514 53.1117V53.1117Z" fill="#A0616A"/>
<path d="M11.2874 74.3731L12.9113 75.5669L18.2574 69.8281L15.8605 68.0663L11.2874 74.3731Z" fill="#A0616A"/>
<path d="M14.9421 79.3872L9.83795 75.6356L11.2777 73.6501L14.4098 75.9522C14.9328 76.3367 15.2827 76.9145 15.3826 77.5587C15.4824 78.2029 15.324 78.8606 14.9421 79.3872V79.3872L14.9421 79.3872Z" fill="#2F2E41"/>
<path d="M19.879 80.6917L21.8898 80.6915L22.8464 72.8828L19.8787 72.883L19.879 80.6917Z" fill="#A0616A"/>
<path d="M25.7681 82.5712L19.4484 82.5715L19.4483 80.1132L23.3263 80.1131C23.9738 80.113 24.5949 80.372 25.0528 80.833C25.5108 81.294 25.768 81.9192 25.7681 82.5712V82.5712V82.5712Z" fill="#2F2E41"/>
<path d="M25.9184 50.2355C25.9184 50.2355 26.9025 59.8131 24.4422 66.4183L22.6381 78.9683H19.5217L19.8498 64.1065L18.7017 50.896C18.7017 50.896 20.9979 44.9513 25.9184 50.2355Z" fill="#2F2E41"/>
<path d="M15.2574 50.8959L18.5377 62.29L12.1411 72.5281L15.3394 75.2528L22.6382 63.7762L20.5059 49.74L15.2574 50.8959Z" fill="#2F2E41"/>
<path d="M23.6224 25.3459C25.8472 25.3459 27.6508 23.53 27.6508 21.2901C27.6508 19.0501 25.8472 17.2343 23.6224 17.2343C21.3976 17.2343 19.594 19.0501 19.594 21.2901C19.594 23.53 21.3976 25.3459 23.6224 25.3459Z" fill="#A0616A"/>
<path d="M20.2596 26.8694C20.2596 26.8694 22.7199 25.2181 25.5082 28.851L26.2462 51.7217C26.2462 51.7217 24.114 48.7493 19.6856 51.5565C15.2571 54.3638 14.273 51.2263 14.273 51.2263C14.273 51.2263 11.1567 27.6125 20.2596 26.8694Z" fill="#EFB18C"/>
<path d="M25.3094 28.7934C26.017 28.8319 26.6855 29.1325 27.1862 29.6373C27.6869 30.1421 27.9845 30.8155 28.0217 31.528L28.5422 41.4836L31.9865 50.896L30.0183 52.5473L23.6217 41.3184L22.3121 32.0887C22.252 31.6657 22.2859 31.2345 22.4113 30.8263C22.5366 30.418 22.7503 30.0428 23.0369 29.7276C23.3236 29.4125 23.6761 29.1652 24.069 29.0037C24.462 28.8421 24.8856 28.7703 25.3094 28.7934V28.7934Z" fill="#EFB18C"/>
<path d="M20.6624 24.3323C21.321 25.0386 22.544 24.6595 22.6299 23.6946C22.6366 23.6197 22.6361 23.5443 22.6284 23.4695C22.5841 23.0421 22.3388 22.654 22.3976 22.2028C22.4109 22.0904 22.4525 21.9834 22.5183 21.8918C23.0431 21.1843 24.2751 22.2083 24.7703 21.5678C25.074 21.175 24.717 20.5567 24.9501 20.1177C25.2577 19.5384 26.1688 19.8242 26.7401 19.5069C27.3758 19.1539 27.3378 18.1719 26.9193 17.5747C26.409 16.8463 25.5142 16.4576 24.6306 16.4016C23.747 16.3455 22.8695 16.586 22.0446 16.9097C21.1073 17.2774 20.1779 17.7857 19.6011 18.6154C18.8997 19.6245 18.8322 20.9811 19.183 22.161C19.3964 22.8788 20.1246 23.7556 20.6624 24.3323Z" fill="#2F2E41"/>
</g>
</svg>
