<svg width="92" height="92" viewBox="0 0 92 92" fill="none" xmlns="http://www.w3.org/2000/svg">
<path d="M81.5326 46.3891C81.5326 66.1922 65.479 82.2457 45.676 82.2457C25.8729 82.2457 9.81934 66.1922 9.81934 46.3891C9.81934 26.586 25.8729 10.5324 45.676 10.5324C65.479 10.5324 81.5326 26.586 81.5326 46.3891Z" fill="url(#paint0_linear_57_4987)"/>
<path fill-rule="evenodd" clip-rule="evenodd" d="M45.3957 88.4085C68.7572 88.4085 87.6954 69.4704 87.6954 46.1089C87.6954 22.7475 68.7572 3.8093 45.3957 3.8093C22.0343 3.8093 3.09611 22.7475 3.09611 46.1089C3.09611 69.4704 22.0343 88.4085 45.3957 88.4085ZM45.3957 89.5291C69.376 89.5291 88.8159 70.0892 88.8159 46.1089C88.8159 22.1286 69.376 2.68878 45.3957 2.68878C21.4154 2.68878 1.97559 22.1286 1.97559 46.1089C1.97559 70.0892 21.4154 89.5291 45.3957 89.5291Z" fill="url(#paint1_linear_57_4987)"/>
<path d="M50.1583 3.24905C50.1583 4.79617 48.9041 6.05035 47.357 6.05035C45.8098 6.05035 44.5557 4.79617 44.5557 3.24905C44.5557 1.70194 45.8098 0.447754 47.357 0.447754C48.9041 0.447754 50.1583 1.70194 50.1583 3.24905Z" fill="#C541B8"/>
<path d="M91.0567 45.8288C91.0567 47.3759 89.8025 48.6301 88.2554 48.6301C86.7083 48.6301 85.4541 47.3759 85.4541 45.8288C85.4541 44.2817 86.7083 43.0275 88.2554 43.0275C89.8025 43.0275 91.0567 44.2817 91.0567 45.8288Z" fill="#D749C9"/>
<path d="M48.4776 88.9688C48.4776 90.5159 47.2234 91.7701 45.6763 91.7701C44.1292 91.7701 42.875 90.5159 42.875 88.9688C42.875 87.4217 44.1292 86.1675 45.6763 86.1675C47.2234 86.1675 48.4776 87.4217 48.4776 88.9688Z" fill="#E950DB"/>
<path d="M5.6026 45.8288C5.6026 47.3759 4.34841 48.6301 2.8013 48.6301C1.25418 48.6301 0 47.3759 0 45.8288C0 44.2817 1.25418 43.0275 2.8013 43.0275C4.34841 43.0275 5.6026 44.2817 5.6026 45.8288Z" fill="#D749C9"/>
<g opacity="0.8" clip-path="url(#clip0_57_4987)">
<path d="M39.8405 54.2878L45.7727 57.5236V61.3838H35.8384C34.2631 61.3838 33 60.1207 33 58.5454V35.8384C33 35.0856 33.299 34.3636 33.8313 33.8313C34.3636 33.299 35.0856 33 35.8384 33H37.2576V42.9343L40.8055 40.8055L44.3535 42.9343V33H52.8686C53.6214 33 54.3434 33.299 54.8757 33.8313C55.408 34.3636 55.707 35.0856 55.707 35.8384V47.9583L53.5782 46.7945L39.8405 54.2878ZM61.3838 54.2878L53.5782 50.0303L45.7727 54.2878L53.5782 58.5454L61.3838 54.2878ZM48.6111 57.2539V60.0923L53.5782 62.803L58.5454 60.0923V57.2539L53.5782 59.9646L48.6111 57.2539Z" fill="white"/>
</g>
<defs>
<linearGradient id="paint0_linear_57_4987" x1="45.676" y1="10.5324" x2="45.676" y2="82.2457" gradientUnits="userSpaceOnUse">
<stop stop-color="#C240B5"/>
<stop offset="1" stop-color="#EB51DD"/>
</linearGradient>
<linearGradient id="paint1_linear_57_4987" x1="45.3957" y1="2.68878" x2="45.3957" y2="89.5291" gradientUnits="userSpaceOnUse">
<stop stop-color="#C441B7"/>
<stop offset="1" stop-color="#E850DA"/>
</linearGradient>
<clipPath id="clip0_57_4987">
<rect width="28.8897" height="28.8897" fill="white" transform="translate(32.1914 33.4646)"/>
</clipPath>
</defs>
</svg>
