<svg width="113" height="113" viewBox="0 0 113 113" fill="none" xmlns="http://www.w3.org/2000/svg">
<rect x="2.75108" y="56.2332" width="76.2308" height="76.2308" transform="rotate(-44.5536 2.75108 56.2332)" stroke="url(#paint0_linear_57_4900)" stroke-width="2"/>
<rect x="10.0293" y="56.6598" width="66.4648" height="66.4648" rx="15" transform="rotate(-44.5536 10.0293 56.6598)" fill="url(#paint1_linear_57_4900)"/>
<circle cx="109.991" cy="57.1687" r="3.00888" fill="#E7D901"/>
<circle cx="56.5001" cy="109.991" r="3.00888" fill="#E7D901"/>
<g opacity="0.8" clip-path="url(#clip0_57_4900)">
<path d="M42.1797 51.8232C44.5928 51.8232 46.5547 49.8613 46.5547 47.4482C46.5547 45.0352 44.5928 43.0732 42.1797 43.0732C39.7666 43.0732 37.8047 45.0352 37.8047 47.4482C37.8047 49.8613 39.7666 51.8232 42.1797 51.8232ZM72.8047 51.8232C75.2178 51.8232 77.1797 49.8613 77.1797 47.4482C77.1797 45.0352 75.2178 43.0732 72.8047 43.0732C70.3916 43.0732 68.4297 45.0352 68.4297 47.4482C68.4297 49.8613 70.3916 51.8232 72.8047 51.8232ZM74.9922 54.0107H70.6172C69.4141 54.0107 68.3271 54.4961 67.5342 55.2822C70.2891 56.793 72.2441 59.5205 72.668 62.7607H77.1797C78.3896 62.7607 79.3672 61.7832 79.3672 60.5732V58.3857C79.3672 55.9727 77.4053 54.0107 74.9922 54.0107ZM57.4922 54.0107C61.7236 54.0107 65.1484 50.5859 65.1484 46.3545C65.1484 42.123 61.7236 38.6982 57.4922 38.6982C53.2607 38.6982 49.8359 42.123 49.8359 46.3545C49.8359 50.5859 53.2607 54.0107 57.4922 54.0107ZM62.7422 56.1982H62.1748C60.7529 56.8818 59.1738 57.292 57.4922 57.292C55.8105 57.292 54.2383 56.8818 52.8096 56.1982H52.2422C47.8945 56.1982 44.3672 59.7256 44.3672 64.0732V66.042C44.3672 67.8535 45.8369 69.3232 47.6484 69.3232H67.3359C69.1475 69.3232 70.6172 67.8535 70.6172 66.042V64.0732C70.6172 59.7256 67.0898 56.1982 62.7422 56.1982ZM47.4502 55.2822C46.6572 54.4961 45.5703 54.0107 44.3672 54.0107H39.9922C37.5791 54.0107 35.6172 55.9727 35.6172 58.3857V60.5732C35.6172 61.7832 36.5947 62.7607 37.8047 62.7607H42.3096C42.7402 59.5205 44.6953 56.793 47.4502 55.2822Z" fill="white"/>
</g>
<circle cx="57.169" cy="3.00888" r="3.00888" fill="#CDC100"/>
<circle cx="3.00888" cy="56.5" r="3.00888" fill="#CDC100"/>
<defs>
<linearGradient id="paint0_linear_57_4900" x1="40.4523" y1="56.2222" x2="40.4523" y2="134.453" gradientUnits="userSpaceOnUse">
<stop stop-color="#CDC100"/>
<stop offset="1" stop-color="#E4D601"/>
</linearGradient>
<linearGradient id="paint1_linear_57_4900" x1="43.2617" y1="56.6598" x2="43.2617" y2="123.125" gradientUnits="userSpaceOnUse">
<stop stop-color="#CDC100"/>
<stop offset="1" stop-color="#E8DA00"/>
</linearGradient>
<clipPath id="clip0_57_4900">
<rect width="43.75" height="35" fill="white" transform="translate(35.6172 38.6982)"/>
</clipPath>
</defs>
</svg>
