<svg width="84" height="83" viewBox="0 0 84 83" fill="none" xmlns="http://www.w3.org/2000/svg">
<rect x="3.40552" y="2.67896" width="76.7196" height="76.7196" stroke="url(#paint0_linear)"/>
<rect x="7.98999" y="6.53711" width="68.277" height="68.277" rx="15" fill="url(#paint1_linear)"/>
<circle cx="80.2617" cy="79.5354" r="3.26858" fill="#F254E4"/>
<circle cx="3.26858" cy="79.5354" r="3.26858" fill="#F254E4"/>
<circle cx="4.72122" cy="3.26858" r="3.26858" fill="#C240B5"/>
<circle cx="80.2617" cy="3.26858" r="3.26858" fill="#C240B5"/>
<g opacity="0.8">
<path d="M63.8631 28.375H55.2222V25.6406C55.2222 24.7314 54.3332 24 53.2282 24H30.629C29.5239 24 28.6349 24.7314 28.6349 25.6406V28.375H19.994C18.889 28.375 18 29.1064 18 30.0156V33.8438C18 36.2842 19.8694 38.793 23.143 40.7275C25.7602 42.2793 28.9423 43.2637 32.2824 43.5781C34.8912 47.1396 37.9405 48.6094 37.9405 48.6094V53.5312H33.9524C31.0195 53.5312 28.6349 54.9463 28.6349 57.3594V58.1797C28.6349 58.6309 29.0836 59 29.6319 59H54.2252C54.7736 59 55.2222 58.6309 55.2222 58.1797V57.3594C55.2222 54.9463 52.8377 53.5312 49.9048 53.5312H45.9167V48.6094C45.9167 48.6094 48.9659 47.1396 51.5748 43.5781C54.9231 43.2637 58.1053 42.2793 60.7142 40.7275C63.9794 38.793 65.8571 36.2842 65.8571 33.8438V30.0156C65.8571 29.1064 64.9681 28.375 63.8631 28.375ZM26.2504 37.1797C24.2231 35.9766 23.3175 34.6367 23.3175 33.8438V32.75H28.6515C28.7346 34.9785 29.1334 36.9336 29.715 38.6426C28.4604 38.2871 27.2889 37.7949 26.2504 37.1797ZM60.5397 33.8438C60.5397 34.9443 59.0691 36.3115 57.6068 37.1797C56.5682 37.7949 55.3884 38.2871 54.1338 38.6426C54.7154 36.9336 55.1142 34.9785 55.1973 32.75H60.5397V33.8438Z" fill="white"/>
</g>
<defs>
<linearGradient id="paint0_linear" x1="41.7653" y1="2.17896" x2="41.7653" y2="79.8986" gradientUnits="userSpaceOnUse">
<stop stop-color="#C040B3"/>
<stop offset="1" stop-color="#F355E5"/>
</linearGradient>
<linearGradient id="paint1_linear" x1="42.1285" y1="6.53711" x2="42.1285" y2="74.8141" gradientUnits="userSpaceOnUse">
<stop stop-color="#BD3EB0"/>
<stop offset="1" stop-color="#F756E9"/>
</linearGradient>
</defs>
</svg>
