<svg width="84" height="83" viewBox="0 0 84 83" fill="none" xmlns="http://www.w3.org/2000/svg">
<rect x="3.40552" y="2.67896" width="76.7196" height="76.7196" stroke="url(#paint0_linear)"/>
<rect x="7.98999" y="6.53711" width="68.277" height="68.277" rx="15" fill="url(#paint1_linear)"/>
<circle cx="80.2617" cy="79.5354" r="3.26858" fill="#52F1DB"/>
<circle cx="3.26858" cy="79.5354" r="3.26858" fill="#52F1DB"/>
<circle cx="4.72122" cy="3.26858" r="3.26858" fill="#44BFB0"/>
<circle cx="80.2617" cy="3.26858" r="3.26858" fill="#44BFB0"/>
<g opacity="0.8" clip-path="url(#clip0)">
<path d="M57.625 47.6094V24.6406C57.625 23.7314 56.8936 23 55.9844 23H33.5625C29.9395 23 27 25.9395 27 29.5625V51.4375C27 55.0605 29.9395 58 33.5625 58H55.9844C56.8936 58 57.625 57.2686 57.625 56.3594V55.2656C57.625 54.7529 57.3857 54.2881 57.0166 53.9873C56.7295 52.9346 56.7295 49.9336 57.0166 48.8809C57.3857 48.5869 57.625 48.1221 57.625 47.6094ZM35.75 32.1602C35.75 31.9346 35.9346 31.75 36.1602 31.75H50.6523C50.8779 31.75 51.0625 31.9346 51.0625 32.1602V33.5273C51.0625 33.7529 50.8779 33.9375 50.6523 33.9375H36.1602C35.9346 33.9375 35.75 33.7529 35.75 33.5273V32.1602ZM35.75 36.5352C35.75 36.3096 35.9346 36.125 36.1602 36.125H50.6523C50.8779 36.125 51.0625 36.3096 51.0625 36.5352V37.9023C51.0625 38.1279 50.8779 38.3125 50.6523 38.3125H36.1602C35.9346 38.3125 35.75 38.1279 35.75 37.9023V36.5352ZM53.0723 53.625H33.5625C32.3525 53.625 31.375 52.6475 31.375 51.4375C31.375 50.2344 32.3594 49.25 33.5625 49.25H53.0723C52.9424 50.4189 52.9424 52.4561 53.0723 53.625Z" fill="white"/>
</g>
<defs>
<linearGradient id="paint0_linear" x1="41.7653" y1="2.17896" x2="41.7653" y2="79.8986" gradientUnits="userSpaceOnUse">
<stop stop-color="#42BAAB"/>
<stop offset="1" stop-color="#52F3DD"/>
</linearGradient>
<linearGradient id="paint1_linear" x1="42.1285" y1="6.53711" x2="42.1285" y2="74.8141" gradientUnits="userSpaceOnUse">
<stop stop-color="#41B7A9"/>
<stop offset="1" stop-color="#54F8E1"/>
</linearGradient>
<clipPath id="clip0">
<rect width="30.625" height="35" fill="white" transform="translate(27 23)"/>
</clipPath>
</defs>
</svg>
