<svg width="84" height="83" viewBox="0 0 84 83" fill="none" xmlns="http://www.w3.org/2000/svg">
<rect x="3.40552" y="2.67896" width="76.7196" height="76.7196" stroke="url(#paint0_linear)"/>
<rect x="7.98975" y="6.53735" width="68.277" height="68.277" rx="15" fill="url(#paint1_linear)"/>
<circle cx="80.2617" cy="79.5354" r="3.26858" fill="#E18880"/>
<circle cx="3.26858" cy="79.5354" r="3.26858" fill="#E18880"/>
<circle cx="4.72122" cy="3.26858" r="3.26858" fill="#B15D56"/>
<circle cx="80.2617" cy="3.26858" r="3.26858" fill="#B15D56"/>
<path d="M20 39.3125V57.9063C20 58.5106 20.4837 59 21.0809 59H26.4853V37.125H22.1618C20.9681 37.125 20 38.1046 20 39.3125ZM44.3199 36.0313H42.6985V33.2969C42.6985 32.9947 42.4567 32.75 42.1581 32.75H41.0772C40.7786 32.75 40.5368 32.9947 40.5368 33.2969V37.6719C40.5368 37.974 40.7786 38.2188 41.0772 38.2188H44.3199C44.6184 38.2188 44.8603 37.974 44.8603 37.6719V36.5781C44.8603 36.276 44.6184 36.0313 44.3199 36.0313ZM53.6256 31.659L42.8167 24.3671C42.4616 24.1277 42.0444 24 41.6176 24C41.1909 24 40.7737 24.1277 40.4185 24.3671L29.6097 31.659C29.3137 31.8587 29.0709 32.1293 28.903 32.4467C28.735 32.7642 28.6471 33.1187 28.6471 33.4787V59H37.2941V49.1563C37.2941 48.552 37.7778 48.0625 38.375 48.0625H44.8603C45.4575 48.0625 45.9412 48.552 45.9412 49.1563V59H54.5882V33.4794C54.5882 32.748 54.2268 32.0644 53.6256 31.659ZM41.6176 41.5C38.6331 41.5 36.2132 39.0514 36.2132 36.0313C36.2132 33.0111 38.6331 30.5625 41.6176 30.5625C44.6022 30.5625 47.0221 33.0111 47.0221 36.0313C47.0221 39.0514 44.6022 41.5 41.6176 41.5ZM61.0735 37.125H56.75V59H62.1544C62.7516 59 63.2353 58.5106 63.2353 57.9063V39.3125C63.2353 38.1046 62.2672 37.125 61.0735 37.125Z" fill="white" fill-opacity="0.8"/>
<defs>
<linearGradient id="paint0_linear" x1="41.7653" y1="2.17896" x2="41.7653" y2="79.8986" gradientUnits="userSpaceOnUse">
<stop stop-color="#AE5B54"/>
<stop offset="1" stop-color="#E58B83"/>
</linearGradient>
<linearGradient id="paint1_linear" x1="42.1283" y1="6.53735" x2="42.1283" y2="74.8144" gradientUnits="userSpaceOnUse">
<stop stop-color="#AC5952"/>
<stop offset="1" stop-color="#E68C84"/>
</linearGradient>
</defs>
</svg>
