<svg width="111" height="111" viewBox="0 0 111 111" fill="none" xmlns="http://www.w3.org/2000/svg">
<path d="M98.7773 55.6579C98.7773 79.6494 79.3284 99.0984 55.3369 99.0984C31.3454 99.0984 11.8965 79.6494 11.8965 55.6579C11.8965 31.6665 31.3454 12.2175 55.3369 12.2175C79.3284 12.2175 98.7773 31.6665 98.7773 55.6579Z" fill="url(#paint0_linear)"/>
<path fill-rule="evenodd" clip-rule="evenodd" d="M54.9974 106.565C83.2999 106.565 106.244 83.6212 106.244 55.3187C106.244 27.0163 83.2999 4.0726 54.9974 4.0726C26.695 4.0726 3.75131 27.0163 3.75131 55.3187C3.75131 83.6212 26.695 106.565 54.9974 106.565ZM54.9974 107.922C84.0496 107.922 107.601 84.3709 107.601 55.3187C107.601 26.2665 84.0496 2.71509 54.9974 2.71509C25.9452 2.71509 2.3938 26.2665 2.3938 55.3187C2.3938 84.3709 25.9452 107.922 54.9974 107.922Z" fill="url(#paint1_linear)"/>
<path d="M60.7668 3.39378C60.7668 5.26812 59.2474 6.78756 57.373 6.78756C55.4987 6.78756 53.9792 5.26812 53.9792 3.39378C53.9792 1.51945 55.4987 0 57.373 0C59.2474 0 60.7668 1.51945 60.7668 3.39378Z" fill="#0193D3"/>
<path d="M110.316 54.9792C110.316 56.8536 108.797 58.373 106.922 58.373C105.048 58.373 103.529 56.8536 103.529 54.9792C103.529 53.1049 105.048 51.5854 106.922 51.5854C108.797 51.5854 110.316 53.1049 110.316 54.9792Z" fill="#019BDE"/>
<path d="M58.7307 107.243C58.7307 109.118 57.2112 110.637 55.3369 110.637C53.4626 110.637 51.9431 109.118 51.9431 107.243C51.9431 105.369 53.4626 103.85 55.3369 103.85C57.2112 103.85 58.7307 105.369 58.7307 107.243Z" fill="#01A4EA"/>
<path d="M6.78756 54.9792C6.78756 56.8536 5.26812 58.373 3.39378 58.373C1.51945 58.373 0 56.8536 0 54.9792C0 53.1049 1.51945 51.5854 3.39378 51.5854C5.26812 51.5854 6.78756 53.1049 6.78756 54.9792Z" fill="#019BDE"/>
<g opacity="0.8" clip-path="url(#clip0)">
<path d="M65.2344 50.9375H57.3457L60.2578 42.0645C60.5312 41.0254 59.7451 40 58.6719 40H48.8281C48.0078 40 47.3105 40.6084 47.2012 41.4219L45.0137 57.8281C44.8838 58.8125 45.6494 59.6875 46.6406 59.6875H54.7549L51.6035 72.9834C51.3574 74.0225 52.1504 75 53.1963 75C53.7705 75 54.3174 74.6992 54.6182 74.1797L66.6494 53.3984C67.2851 52.3115 66.499 50.9375 65.2344 50.9375Z" fill="white"/>
</g>
<defs>
<linearGradient id="paint0_linear" x1="55.3369" y1="12.2175" x2="55.3369" y2="99.0984" gradientUnits="userSpaceOnUse">
<stop stop-color="#0192D1"/>
<stop offset="1" stop-color="#01A5EC"/>
</linearGradient>
<linearGradient id="paint1_linear" x1="54.9974" y1="2.71509" x2="54.9974" y2="107.922" gradientUnits="userSpaceOnUse">
<stop stop-color="#0193D2"/>
<stop offset="1" stop-color="#01A4EA"/>
</linearGradient>
<clipPath id="clip0">
<rect width="21.875" height="35" fill="white" transform="translate(45 40)"/>
</clipPath>
</defs>
</svg>
