<svg width="92" height="92" viewBox="0 0 92 92" fill="none" xmlns="http://www.w3.org/2000/svg">
<path d="M82.3588 46.3891C82.3588 66.1922 66.3052 82.2457 46.5021 82.2457C26.6991 82.2457 10.6455 66.1922 10.6455 46.3891C10.6455 26.586 26.6991 10.5324 46.5021 10.5324C66.3052 10.5324 82.3588 26.586 82.3588 46.3891Z" fill="url(#paint0_linear_57_4962)"/>
<path fill-rule="evenodd" clip-rule="evenodd" d="M46.2219 88.4086C69.5833 88.4086 88.5215 69.4704 88.5215 46.1089C88.5215 22.7475 69.5833 3.8093 46.2219 3.8093C22.8605 3.8093 3.92228 22.7475 3.92228 46.1089C3.92228 69.4704 22.8605 88.4086 46.2219 88.4086ZM46.2219 89.5291C70.2022 89.5291 89.6421 70.0892 89.6421 46.1089C89.6421 22.1286 70.2022 2.68878 46.2219 2.68878C22.2416 2.68878 2.80176 22.1286 2.80176 46.1089C2.80176 70.0892 22.2416 89.5291 46.2219 89.5291Z" fill="url(#paint1_linear_57_4962)"/>
<path d="M50.9844 3.24905C50.9844 4.79617 49.7303 6.05035 48.1831 6.05035C46.636 6.05035 45.3818 4.79617 45.3818 3.24905C45.3818 1.70194 46.636 0.447754 48.1831 0.447754C49.7303 0.447754 50.9844 1.70194 50.9844 3.24905Z" fill="#A9574F"/>
<path d="M91.8829 45.8288C91.8829 47.3759 90.6287 48.6301 89.0816 48.6301C87.5345 48.6301 86.2803 47.3759 86.2803 45.8288C86.2803 44.2817 87.5345 43.0275 89.0816 43.0275C90.6287 43.0275 91.8829 44.2817 91.8829 45.8288Z" fill="#C06A63"/>
<path d="M49.3038 88.9688C49.3038 90.516 48.0496 91.7701 46.5025 91.7701C44.9554 91.7701 43.7012 90.516 43.7012 88.9688C43.7012 87.4217 44.9554 86.1675 46.5025 86.1675C48.0496 86.1675 49.3038 87.4217 49.3038 88.9688Z" fill="#DF857E"/>
<path d="M5.6026 45.8288C5.6026 47.3759 4.34841 48.6301 2.8013 48.6301C1.25418 48.6301 0 47.3759 0 45.8288C0 44.2817 1.25418 43.0275 2.8013 43.0275C4.34841 43.0275 5.6026 44.2817 5.6026 45.8288Z" fill="#C06A63"/>
<path fill-rule="evenodd" clip-rule="evenodd" d="M47.2605 33.3602C47.1059 33.2932 46.9392 33.2587 46.7707 33.2587C46.6022 33.2587 46.4355 33.2932 46.2809 33.3602L30.2837 40.2805C30.0639 40.376 29.8768 40.5334 29.7454 40.7335C29.6139 40.9336 29.5439 41.1677 29.5439 41.4069C29.5439 41.6462 29.6139 41.8802 29.7454 42.0803C29.8768 42.2804 30.0639 42.4379 30.2837 42.5333L32.4814 43.484V57.2191C31.8414 57.5016 31.318 57.9952 30.9991 58.617C30.6802 59.2389 30.5851 59.9512 30.7298 60.6347C30.8744 61.3182 31.25 61.9313 31.7936 62.3713C32.3372 62.8112 33.0158 63.0513 33.7157 63.0513C34.4155 63.0513 35.0941 62.8112 35.6377 62.3713C36.1813 61.9313 36.5569 61.3182 36.7016 60.6347C36.8462 59.9512 36.7511 59.2389 36.4322 58.617C36.1133 57.9952 35.59 57.5016 34.9499 57.2191V44.5502L46.2785 49.4512C46.433 49.5181 46.5997 49.5527 46.7682 49.5527C46.9367 49.5527 47.1034 49.5181 47.258 49.4512L63.2553 42.5333C63.4751 42.4379 63.6622 42.2804 63.7936 42.0803C63.925 41.8802 63.995 41.6462 63.995 41.4069C63.995 41.1677 63.925 40.9336 63.7936 40.7335C63.6622 40.5334 63.4751 40.376 63.2553 40.2805L47.2605 33.3602ZM36.8179 54.5487L36.8056 48.7019L45.0578 52.269C45.5981 52.5026 46.1806 52.6231 46.7695 52.6231C47.3583 52.6231 47.9408 52.5026 48.4812 52.269L56.7358 48.6995V54.5463C56.7367 54.8149 56.6493 55.0763 56.4872 55.2906L55.5052 54.5463L56.4847 55.2906V55.2956L56.4773 55.3005L56.465 55.3177L56.4281 55.3644L56.3026 55.5117C56.1567 55.6745 56.004 55.8311 55.8448 55.981C55.3001 56.4947 54.7029 56.9501 54.063 57.3395C52.4633 58.3172 50.0587 59.2655 46.7707 59.2655C43.4802 59.2655 41.0781 58.3172 39.4858 57.337C38.8457 56.9488 38.2485 56.4942 37.7039 55.981C37.499 55.7855 37.3051 55.5788 37.1231 55.3619L37.0862 55.3128L37.0739 55.298L37.069 55.2931C37.0665 55.2906 37.0665 55.2882 38.0485 54.5463L37.064 55.2882C36.9043 55.0756 36.8179 54.8145 36.8179 54.5487Z" fill="white" fill-opacity="0.82"/>
<defs>
<linearGradient id="paint0_linear_57_4962" x1="46.5021" y1="10.5324" x2="46.5021" y2="82.2457" gradientUnits="userSpaceOnUse">
<stop stop-color="#A7554D"/>
<stop offset="1" stop-color="#E48982"/>
</linearGradient>
<linearGradient id="paint1_linear_57_4962" x1="46.2219" y1="2.68878" x2="46.2219" y2="89.5291" gradientUnits="userSpaceOnUse">
<stop stop-color="#AA5750"/>
<stop offset="1" stop-color="#E18680"/>
</linearGradient>
</defs>
</svg>
