<svg width="100" height="100" viewBox="0 0 100 100" fill="none" xmlns="http://www.w3.org/2000/svg">
<path d="M100 50C100 77.6142 77.6142 100 50 100C22.3858 100 0 77.6142 0 50C0 22.3858 22.3858 0 50 0C77.6142 0 100 22.3858 100 50Z" fill="#EFB18C" fill-opacity="0.2"/>
<mask id="mask0" mask-type="alpha" maskUnits="userSpaceOnUse" x="0" y="0" width="100" height="100">
<circle cx="50" cy="50" r="50" fill="#C4C4C4"/>
</mask>
<g mask="url(#mask0)">
<path d="M82.1398 49.679L78.0839 57.7086L65.9565 63.2219C64.6614 65.4106 60.546 65.5781 60.2467 64.1627C59.9109 62.5749 65.2442 60.0192 65.2442 60.0192L75.3878 53.1582L76.2753 47.2518L82.1398 49.679Z" fill="#A0616A"/>
<path d="M87.9447 65.0425C88.5431 65.7904 88.2439 68.3336 88.2439 68.3336C88.2439 68.3336 89.2911 76.5616 88.8423 77.3096C88.3935 78.0576 89.1415 78.6559 89.5903 79.7031C90.0391 80.7503 90.4879 83.2935 90.4879 83.2935C93.0311 85.3879 92.8815 94.9622 92.8815 94.9622L93.7791 103.489C93.4799 104.387 89.2911 104.536 88.6927 104.387C88.0943 104.237 86.2991 90.7734 86.2991 90.7734L82.2599 83.1439C82.2599 83.1439 82.5591 103.489 82.5591 104.387C82.5591 105.284 78.52 104.836 77.6224 104.836C76.7248 104.836 76.7248 89.8758 76.7248 89.8758L75.8272 85.9863L71.04 68.184V66.0897L71.788 65.0425C71.788 65.0425 87.3463 64.2945 87.9447 65.0425Z" fill="#2F2E41"/>
<path d="M81.3624 31.0836C83.9237 31.0836 86 29.0073 86 26.446C86 23.8848 83.9237 21.8085 81.3624 21.8085C78.8012 21.8085 76.7249 23.8848 76.7249 26.446C76.7249 29.0073 78.8012 31.0836 81.3624 31.0836Z" fill="#A0616A"/>
<path d="M79.0443 28.6152C79.9844 30.7085 79.4277 33.6322 77.5483 36.8431L85.1779 33.2528L83.9811 32.2056L84.2803 29.2136L79.0443 28.6152Z" fill="#A0616A"/>
<path d="M79.044 33.4024C78.0449 33.9964 77.4472 35.0877 77.1041 36.1982C76.4689 38.2543 76.0866 40.38 75.9656 42.5285L75.6032 48.9607L71.1152 66.0149C75.0048 69.3061 77.2488 68.5581 82.4847 65.8653C87.7207 63.1725 88.3191 66.7629 88.3191 66.7629C88.3191 66.7629 88.7679 66.6133 88.3191 66.1645C87.8703 65.7157 88.3191 66.1645 88.7679 65.7157C89.2167 65.2669 88.7679 65.7157 88.6183 65.2669C88.4687 64.8181 88.6183 65.1173 88.7679 64.9677C88.9175 64.8181 88.1695 63.4717 88.1695 63.4717L89.3663 52.2518L90.8622 36.3944C89.0671 34.1504 83.9807 32.2056 83.9807 32.2056L79.3431 35.4968C77.8472 36.0951 79.044 33.7016 79.044 33.7016V33.4024Z" fill="#EFB18C"/>
<path d="M93.3301 45.8938L93.9285 54.8697L86.299 65.7904C86.299 68.3336 84.9527 68.932 84.9527 68.932C84.4427 68.1181 83.9927 67.2681 83.6063 66.3888C82.8583 64.7432 84.0551 63.3968 84.0551 63.3968L89.291 52.3265L87.047 46.7914L93.3301 45.8938Z" fill="#A0616A"/>
<path d="M90.787 36.4691C93.3302 37.3667 93.779 47.0906 93.779 47.0906C90.787 45.445 87.1967 48.1378 87.1967 48.1378C87.1967 48.1378 86.4487 45.5946 85.5511 42.3035C85.2801 41.3777 85.2477 40.3984 85.4569 39.4568C85.6662 38.5151 86.1103 37.6417 86.7479 36.9179C86.7479 36.9179 88.2439 35.5715 90.787 36.4691Z" fill="#EFB18C"/>
<path d="M85.6264 27.8672C85.036 27.3949 84.2306 28.2534 84.2306 28.2534L83.7583 24.0027C83.7583 24.0027 80.8063 24.3569 78.9171 23.8846C77.0279 23.4123 76.7327 25.5967 76.7327 25.5967C76.6353 24.7146 76.6155 23.8256 76.6737 22.94C76.7917 21.8773 78.3267 20.8146 81.0425 20.1061C83.7583 19.3977 85.1752 22.4677 85.1752 22.4677C87.0644 23.4123 86.2167 28.3395 85.6264 27.8672Z" fill="#2F2E41"/>
<path d="M66.7129 52.3975H10V63.5947H66.7129V52.3975Z" fill="#E6E6E6"/>
<path d="M66.7129 38.3938H10V49.5909H66.7129V38.3938Z" fill="#E6E6E6"/>
<path d="M66.7129 23.7538H10V34.9509H66.7129V23.7538Z" fill="#E6E6E6"/>
<path d="M11.2085 33.7419H65.5034V24.9628H11.2085V33.7419Z" fill="white"/>
<path d="M11.2085 48.1319H65.5034V39.3528H11.2085V48.1319Z" fill="white"/>
<path d="M11.2085 62.3856H65.5034V53.6066H11.2085V62.3856Z" fill="white"/>
<path d="M56.9696 27.9709H23.9597V28.6979H56.9696V27.9709Z" fill="#A25049"/>
<path d="M54.5597 29.8613H23.9597V30.5884H54.5597V29.8613Z" fill="#A25049"/>
<path d="M56.9696 42.4673H23.9597V43.1944H56.9696V42.4673Z" fill="#A25049"/>
<path d="M51.1597 44.3577H23.9597V45.0848H51.1597V44.3577Z" fill="#A25049"/>
<path d="M56.9696 56.7601H23.9597V57.4872H56.9696V56.7601Z" fill="#A25049"/>
<path d="M47.7597 58.6505H23.9597V59.3776H47.7597V58.6505Z" fill="#A25049"/>
<path d="M22.3077 29.0575C22.3077 31.9867 19.9331 34.3612 17.0039 34.3612C14.0748 34.3612 11.7002 31.9867 11.7002 29.0575C11.7002 26.1283 14.0748 23.7538 17.0039 23.7538C19.9331 23.7538 22.3077 26.1283 22.3077 29.0575Z" fill="#EF938B"/>
<path fill-rule="evenodd" clip-rule="evenodd" d="M22.0459 25.5468C22.4117 25.9013 22.3926 26.4586 22.0033 26.7916L16.9755 31.092C16.6351 31.3831 16.115 31.4113 15.7391 31.159L13.6091 29.7292C13.1791 29.4406 13.0876 28.8893 13.4046 28.4978C13.7217 28.1064 14.3272 28.023 14.7572 28.3117L16.2384 29.3059L20.6787 25.508C21.068 25.175 21.6802 25.1924 22.0459 25.5468Z" fill="#B05E57"/>
<path d="M19.0325 43.7456C19.0325 45.5944 17.5338 47.0931 15.6851 47.0931C13.8363 47.0931 12.3376 45.5944 12.3376 43.7456C12.3376 41.8969 13.8363 40.3982 15.6851 40.3982C17.5338 40.3982 19.0325 41.8969 19.0325 43.7456Z" fill="#EF938B"/>
<path fill-rule="evenodd" clip-rule="evenodd" d="M18.8677 41.5299C19.0986 41.7536 19.0866 42.1053 18.8408 42.3155L15.6676 45.0297C15.4528 45.2134 15.1244 45.2312 14.8872 45.0719L13.5429 44.1695C13.2715 43.9874 13.2138 43.6394 13.4138 43.3924C13.6139 43.1453 13.9961 43.0927 14.2675 43.2749L15.2023 43.9024L18.0048 41.5054C18.2505 41.2952 18.6369 41.3062 18.8677 41.5299Z" fill="#B05E57"/>
<path d="M19.0325 58.3856C19.0325 60.2344 17.5338 61.733 15.6851 61.733C13.8363 61.733 12.3376 60.2344 12.3376 58.3856C12.3376 56.5369 13.8363 55.0382 15.6851 55.0382C17.5338 55.0382 19.0325 56.5369 19.0325 58.3856Z" fill="#EF938B"/>
<path fill-rule="evenodd" clip-rule="evenodd" d="M18.8677 56.1699C19.0986 56.3936 19.0866 56.7453 18.8408 56.9555L15.6676 59.6697C15.4528 59.8534 15.1244 59.8712 14.8872 59.712L13.5429 58.8095C13.2715 58.6274 13.2138 58.2794 13.4138 58.0324C13.6139 57.7853 13.9961 57.7327 14.2675 57.9149L15.2023 58.5424L18.0048 56.1454C18.2505 55.9352 18.6369 55.9462 18.8677 56.1699Z" fill="#B05E57"/>
</g>
</svg>
